<svg version="1.1" xmlns="http://www.w3.org/2000/svg" xmlns:xlink="http://www.w3.org/1999/xlink" width="428.86486" height="128.42471" viewBox="0,0,428.86486,128.42471"><g transform="translate(-25.56757,-115.78764)"><g data-paper-data="{&quot;isPaintingLayer&quot;:true}" fill-rule="nonzero" stroke-linecap="butt" stroke-linejoin="miter" stroke-dasharray="" stroke-dashoffset="0" style="mix-blend-mode: normal"><path d="M42.74131,242.21236c-8.38022,0 -15.17375,-6.79352 -15.17375,-15.17375v-94.07722c0,-8.38022 6.79352,-15.17375 15.17375,-15.17375h394.51737c8.38022,0 15.17375,6.79352 15.17375,15.17375v94.07722c0,8.38022 -6.79352,15.17375 -15.17375,15.17375z" fill="#00b8ff" stroke="#406aa6" stroke-width="4" stroke-miterlimit="4"/><text transform="translate(164.349,156.12314) scale(2.20388,2.20388)" font-size="12.3952" xml:space="preserve" fill="#ffffff" fill-rule="nonzero" stroke="none" stroke-width="1" stroke-linecap="butt" stroke-linejoin="miter" stroke-miterlimit="10" stroke-dasharray="" stroke-dashoffset="0" font-family="&quot;DejaVu Sans&quot;" font-weight="normal" text-anchor="start" style="mix-blend-mode: normal"><tspan x="0" dy="0">GET IT ON</tspan></text><text transform="translate(165.73993,216.81812) scale(1.85112,1.85112)" font-size="29.7088" xml:space="preserve" fill="#ffffff" fill-rule="nonzero" stroke="none" stroke-width="1" stroke-linecap="butt" stroke-linejoin="miter" stroke-miterlimit="10" stroke-dasharray="" stroke-dashoffset="0" font-family="Rokkitt" font-weight="bold" text-anchor="start" style="mix-blend-mode: normal"><tspan x="0" dy="0">Telegram</tspan></text><path d="M121.99737,160.07257c0,0 -34.73564,22.87488 -40.35486,26.57537c-1.48354,0.97697 -3.96861,1.60556 -5.82014,1.18291c-7.11055,-1.62311 -24.48197,-5.83975 -26.05593,-8.63175c-0.87861,-1.55854 -0.9137,-2.09004 -0.94328,-2.75356c-0.03494,-0.78359 0.2372,-1.63356 3.45266,-2.87935c18.95827,-7.34519 70.85823,-27.815 80.55994,-27.815c5.75027,0 7.20753,-0.15812 7.20753,4.47543c0,7.32623 -10.18743,49.80013 -14.7115,68.91879c-1.5687,4.21112 -2.18281,3.5983 -4.80194,3.04264c-4.85419,-1.02984 -27.77675,-21.83729 -33.96799,-27.28393c-0.87718,-0.77168 -1.10408,-2.78569 0.06894,-3.81446c4.70511,-4.12646 35.36658,-31.0171 35.36658,-31.0171z" fill="#ffffff" stroke="none" stroke-width="0" stroke-miterlimit="10"/></g></g></svg>