<svg version="1.1" xmlns="http://www.w3.org/2000/svg" xmlns:xlink="http://www.w3.org/1999/xlink" width="914.75044" height="574.11307" viewBox="0,0,914.75044,574.11307"><g transform="translate(330.00089,241.36307)"><g data-paper-data="{&quot;isPaintingLayer&quot;:true}" fill-rule="nonzero" stroke-linecap="butt" stroke-linejoin="miter" stroke-dasharray="" stroke-dashoffset="0" style="mix-blend-mode: normal"><path d="M22.49912,304.64198c-11.04569,0 -20,-8.95431 -20,-20v-124c0,-11.04569 8.95431,-20 20,-20h520c11.04569,0 20,8.95431 20,20v124c0,11.04569 -8.95431,20 -20,20z" fill="#00b8ff" stroke="#406aa6" stroke-width="4" stroke-miterlimit="4"/><text transform="translate(-329.50088,-214.86306)" font-size="12.3952" xml:space="preserve" fill="#ffffff" fill-rule="nonzero" stroke="none" stroke-width="1" stroke-linecap="butt" stroke-linejoin="miter" stroke-miterlimit="10" stroke-dasharray="" stroke-dashoffset="0" font-family="&quot;DejaVu Sans&quot;" font-weight="normal" text-anchor="start" style="mix-blend-mode: normal"><tspan x="0" dy="0">GET IT ON</tspan></text><text transform="translate(-329.50088,-214.86306)" font-size="29.7088" xml:space="preserve" fill="#ffffff" fill-rule="nonzero" stroke="none" stroke-width="1" stroke-linecap="butt" stroke-linejoin="miter" stroke-miterlimit="10" stroke-dasharray="" stroke-dashoffset="0" font-family="Rokkitt" font-weight="bold" text-anchor="start" style="mix-blend-mode: normal"><tspan x="0" dy="0">GitHub</tspan></text><path d="M126.96385,196.37631c0,0 -45.78387,30.1506 -53.19037,35.02809c-1.9554,1.28771 -5.23089,2.11623 -7.67133,1.55916c-9.37217,-2.13937 -32.26885,-7.69718 -34.34344,-11.37722c-1.15807,-2.05426 -1.20432,-2.75481 -1.24331,-3.62938c-0.04605,-1.03282 0.31265,-2.15314 4.55083,-3.79518c24.98825,-9.68145 93.39583,-36.662 106.18333,-36.662c7.57923,0 9.5,-0.20842 9.5,5.89891c0,9.65645 -13.42771,65.63987 -19.39073,90.83953c-2.06765,5.55054 -2.87709,4.7428 -6.32928,4.0104c-6.39814,-1.35739 -36.61159,-28.78299 -44.77205,-35.96203c-1.15618,-1.01713 -1.45525,-3.67173 0.09087,-5.0277c6.20164,-5.43895 46.61549,-40.8826 46.61549,-40.8826z" fill="#ffffff" stroke="none" stroke-width="0" stroke-miterlimit="10"/><text transform="translate(194.00557,194.78201) scale(0.89096,0.89096)" font-size="40" xml:space="preserve" fill="#ffffff" fill-rule="nonzero" stroke-opacity="0" stroke="#000000" stroke-width="0" stroke-linecap="butt" stroke-linejoin="miter" stroke-miterlimit="10" stroke-dasharray="" stroke-dashoffset="0" font-family="Serif" font-weight="normal" text-anchor="start" style="mix-blend-mode: normal"><tspan x="0" dy="0">GET IT ON</tspan></text><text transform="translate(191.97028,275.88964) scale(2.01809,2.01809)" font-size="40" xml:space="preserve" fill="#ffffff" fill-rule="nonzero" stroke="#ffffff" stroke-width="0.5" stroke-linecap="butt" stroke-linejoin="miter" stroke-miterlimit="10" stroke-dasharray="" stroke-dashoffset="0" font-family="Serif" font-weight="normal" text-anchor="start" style="mix-blend-mode: normal"><tspan x="0" dy="0">Telegram</tspan></text><path d="M-26.25044,332.75v-224h611v224z" fill="none" stroke="none" stroke-width="0" stroke-miterlimit="10"/></g></g></svg>