<?xml version="1.0" encoding="utf-8"?>
<svg xmlns="http://www.w3.org/2000/svg" viewBox="0 0 500 500">
  <g transform="matrix(1, 0, 0, 1, -169.2677, 12.605042)">
    <g id="svg8502" transform="matrix(1, 0, 0, 1, 298.319336, 68.427368)">
      <rect style="color: rgb(0, 0, 0); display: inline; overflow: visible; visibility: visible; fill-opacity: 1; fill-rule: nonzero; stroke: rgb(166, 166, 166); stroke-width: 4; stroke-miterlimit: 4; stroke-dasharray: none; stroke-opacity: 1; marker: none; fill: rgb(0, 140, 252);" id="rect3007" width="560" height="164" x="-230.18" y="47.652" rx="20" ry="20"/>
      <text id="text3013" style="color: rgb(0, 0, 0); font-style: normal; font-variant: normal; font-weight: normal; font-stretch: normal; font-size: 12.3952px; line-height: 100%; font-family: &quot;DejaVu Sans&quot;; letter-spacing: 0px; word-spacing: 0px; display: inline; overflow: visible; visibility: visible; fill: rgb(255, 255, 255); fill-opacity: 1; fill-rule: nonzero; stroke: none; stroke-width: 1; marker: none; white-space: pre;" x="-53.229" y="94.657"><tspan y="94.657" x="-53.229" id="tspan3015" style="font-style: normal; font-variant: normal; font-weight: normal; font-stretch: normal; font-size: 34.1px; font-family: &quot;DejaVu Sans&quot;; word-spacing: 0px; stroke-width: 1;">GET IT ON</tspan></text>
      <text style="color: black; font-style: normal; font-variant: normal; font-weight: bold; font-stretch: normal; font-size: 29.7088px; line-height: 100%; font-family: Rokkitt; text-align: start; letter-spacing: 0px; word-spacing: 0px; writing-mode: lr-tb; text-anchor: start; display: inline; overflow: visible; visibility: visible; fill: white; fill-opacity: 1; fill-rule: nonzero; stroke: none; stroke-width: 1; marker: none; white-space: pre;" id="text5902" x="-53.967" y="181.651"><tspan id="tspan5904" x="-53.967" y="181.651" style="font-style: normal; font-variant: normal; font-weight: bold; font-stretch: normal; font-size: 87.5px; line-height: 100%; font-family: &quot;Roboto Slab&quot;; text-align: start; writing-mode: lr-tb; text-anchor: start; fill: white; fill-opacity: 1; word-spacing: 0px; stroke-width: 1;">Telegram</tspan></text>
      <g transform="matrix(1.001768, 0, 0, 1.001768, -493.409302, -215.050079)" id="g5136"/>
    </g>
    <path d="M 199.879 145.497 C 199.879 145.497 211.595 140.929 210.618 152.021 C 210.293 156.589 207.365 172.578 205.086 189.869 L 197.276 241.095 C 197.276 241.095 196.625 248.6 190.767 249.903 C 184.912 251.208 176.126 245.335 174.498 244.032 C 173.195 243.052 150.094 228.369 141.959 221.193 C 139.68 219.233 137.078 215.32 142.282 210.752 L 176.451 178.123 C 180.356 174.209 184.26 165.074 167.991 176.166 L 122.433 207.161 C 122.433 207.161 117.226 210.423 107.467 207.49 L 86.313 200.962 C 86.313 200.962 78.504 196.068 91.846 191.175 C 124.387 175.84 164.409 160.177 199.879 145.497 Z" style="stroke-width: 1; fill: rgb(255, 255, 255);"/>
  </g>
</svg>